<svg width="37" height="36" viewBox="0 0 37 36" fill="none" xmlns="http://www.w3.org/2000/svg">
<path d="M27.3331 27.6406V28.2835C27.3331 28.9655 27.0622 29.6195 26.58 30.1018C26.0978 30.584 25.4437 30.8549 24.7617 30.8549H9.33315C8.65116 30.8549 7.99711 30.584 7.51487 30.1018C7.03264 29.6195 6.76172 28.9655 6.76172 28.2835V7.71205C6.76172 7.03007 7.03264 6.37602 7.51487 5.89378C7.99711 5.41154 8.65116 5.14063 9.33315 5.14062H20.2617L24.7617 9.64062" stroke="#016DB2" stroke-width="2.57143" stroke-linecap="round" stroke-linejoin="round"/>
<path d="M16.8765 25.0382L16.8766 25.039L16.9152 25.2815L16.9153 25.2822C16.967 25.6188 17.0073 25.8289 17.0485 25.9652C17.0893 26.1002 17.1255 26.1429 17.1559 26.1655L17.1561 26.1656C17.2181 26.2119 17.2455 26.2132 17.2593 26.2114C17.2795 26.2088 17.3169 26.1934 17.3887 26.1271L17.4684 26.0469C17.4959 26.0169 17.5259 25.9818 17.5625 25.9388L17.9378 25.4784L17.9391 25.4767C18.2945 25.0553 18.6232 24.7654 19.0289 24.5824C19.1085 24.5446 19.1953 24.5344 19.2812 24.5557C19.3661 24.5767 19.4406 24.6262 19.5021 24.6917C19.5636 24.7571 19.6137 24.8398 19.652 24.9323C19.6904 25.0251 19.7174 25.1287 19.7324 25.2368C19.7474 25.3451 19.7503 25.4572 19.741 25.5672C19.7317 25.677 19.7103 25.7838 19.6773 25.8814C19.6444 25.9788 19.5998 26.0674 19.544 26.1404C19.4887 26.2126 19.4208 26.2714 19.3415 26.3054C19.1316 26.402 18.9269 26.5587 18.736 26.7741C18.7359 26.7742 18.7357 26.7744 18.7356 26.7745L18.5687 26.9664L18.2989 27.299C18.2987 27.2992 18.2985 27.2994 18.2984 27.2997C18.1892 27.4379 18.0749 27.5642 17.956 27.6776L17.9546 27.679L17.9546 27.679C17.7608 27.8583 17.556 27.9759 17.3351 28C17.1113 28.0243 16.8928 27.9503 16.6781 27.7902C16.2099 27.4432 16.0348 26.9092 15.8756 25.9479L15.8755 25.9472L15.7872 25.3929C15.7872 25.3927 15.7872 25.3925 15.7871 25.3922C15.7617 25.243 15.7388 25.129 15.7156 25.0413C15.692 24.9526 15.6699 24.8984 15.6492 24.8648C15.6305 24.8344 15.6149 24.8237 15.6006 24.8176C15.5822 24.8097 15.5531 24.8041 15.4987 24.8041C15.4531 24.8041 15.3927 24.8237 15.3079 24.8984C15.2222 24.9738 15.1222 25.0962 15.0002 25.2805L14.8977 25.4422L14.3764 26.3356L14.3761 26.336C13.5758 27.6934 12.8614 28.4121 11.81 28.4121C10.8288 28.4121 9.97356 28.1449 9.25431 27.599L9.08846 27.4732L9.27526 27.3812L10.9471 26.5585L10.9859 26.5395L11.0283 26.5477C11.2734 26.5952 11.5341 26.62 11.81 26.62C12.4077 26.62 12.8559 26.2523 13.4515 25.2872L13.5969 25.0442L13.8981 24.5233L16.8765 25.0382ZM16.8765 25.0382C16.7666 24.3767 16.6367 23.8747 16.4299 23.537C16.3248 23.3655 16.1976 23.2322 16.0398 23.1427C15.882 23.0531 15.702 23.0121 15.4987 23.0121M16.8765 25.0382L15.4987 23.0121M14.238 23.9643L14.2381 23.964C14.6273 23.376 15.0132 23.0123 15.4981 23.0121C15.4983 23.0121 15.4985 23.0121 15.4987 23.0121M14.238 23.9643L15.4987 23.1406V23.0121M14.238 23.9643C14.1351 24.1207 14.0327 24.2898 13.8982 24.5231L14.0095 24.5875C14.1434 24.3552 14.2444 24.1884 14.3454 24.0349C14.7332 23.4489 15.0854 23.1409 15.4981 23.1406L14.238 23.9643Z" fill="#016DB2" stroke="#F2F4F8" stroke-width="0.257143"/>
<path d="M25.3006 14.9276C25.5513 14.6768 25.849 14.4779 26.1766 14.3423C26.5042 14.2066 26.8553 14.1367 27.2099 14.1367C27.5645 14.1367 27.9156 14.2066 28.2432 14.3423C28.5708 14.4779 28.8684 14.6768 29.1192 14.9276C29.3699 15.1783 29.5688 15.476 29.7045 15.8036C29.8402 16.1312 29.91 16.4823 29.91 16.8369C29.91 17.1914 29.8402 17.5426 29.7045 17.8702C29.5688 18.1977 29.3699 18.4954 29.1192 18.7461L23.4106 24.429L18.332 25.7147L19.6049 20.6361L25.3006 14.9276Z" stroke="#016DB2" stroke-width="2.57143" stroke-linecap="round" stroke-linejoin="round"/>
<path d="M25.3006 14.9276C25.5513 14.6768 25.849 14.4779 26.1766 14.3423C26.5042 14.2066 26.8553 14.1367 27.2099 14.1367C27.5645 14.1367 27.9156 14.2066 28.2432 14.3423C28.5708 14.4779 28.8684 14.6768 29.1192 14.9276C29.3699 15.1783 29.5688 15.476 29.7045 15.8036C29.8402 16.1312 29.91 16.4823 29.91 16.8369C29.91 17.1914 29.8402 17.5426 29.7045 17.8702C29.5688 18.1977 29.3699 18.4954 29.1192 18.7461L23.4106 24.429L18.332 25.7147L19.6049 20.6361L25.3006 14.9276Z" stroke="#016DB2" stroke-width="2.57143" stroke-linecap="round" stroke-linejoin="round"/>
<path d="M12.5923 10.7461C12.5838 10.6396 12.5439 10.5565 12.4725 10.4968C12.4022 10.4371 12.2951 10.4073 12.1513 10.4073C12.0597 10.4073 11.9846 10.4185 11.926 10.4409C11.8684 10.4622 11.8258 10.4915 11.7981 10.5288C11.7704 10.5661 11.756 10.6087 11.755 10.6566C11.7528 10.696 11.7598 10.7317 11.7757 10.7637C11.7928 10.7946 11.8194 10.8228 11.8556 10.8484C11.8919 10.8729 11.9382 10.8952 11.9947 10.9155C12.0511 10.9357 12.1183 10.9538 12.196 10.9698L12.4645 11.0273C12.6456 11.0657 12.8006 11.1163 12.9295 11.1792C13.0584 11.242 13.1639 11.3161 13.2459 11.4013C13.3279 11.4854 13.3881 11.5803 13.4265 11.6857C13.4659 11.7912 13.4862 11.9062 13.4872 12.0309C13.4862 12.2461 13.4324 12.4283 13.3258 12.5774C13.2193 12.7266 13.0669 12.84 12.8688 12.9178C12.6717 12.9956 12.4347 13.0344 12.1577 13.0344C11.8732 13.0344 11.625 12.9924 11.413 12.9082C11.2021 12.824 11.038 12.6946 10.9208 12.5199C10.8047 12.3441 10.7461 12.1193 10.745 11.8455H11.5888C11.5941 11.9457 11.6191 12.0298 11.6639 12.098C11.7086 12.1662 11.7715 12.2179 11.8525 12.253C11.9345 12.2882 12.032 12.3058 12.1449 12.3058C12.2397 12.3058 12.3191 12.294 12.383 12.2706C12.4469 12.2472 12.4954 12.2147 12.5284 12.1731C12.5614 12.1316 12.5785 12.0842 12.5795 12.0309C12.5785 11.9808 12.562 11.9371 12.53 11.8999C12.4991 11.8615 12.448 11.8274 12.3766 11.7976C12.3052 11.7667 12.2088 11.7379 12.0874 11.7113L11.7614 11.641C11.4716 11.5781 11.2431 11.4732 11.0758 11.3262C10.9096 11.1781 10.8271 10.9762 10.8281 10.7205C10.8271 10.5128 10.8825 10.3311 10.9943 10.1756C11.1072 10.019 11.2633 9.89702 11.4625 9.80966C11.6628 9.7223 11.8924 9.67862 12.1513 9.67862C12.4155 9.67862 12.644 9.72283 12.8368 9.81126C13.0297 9.89968 13.1783 10.0243 13.2827 10.1852C13.3881 10.345 13.4414 10.532 13.4425 10.7461H12.5923ZM14.7137 9.72337V12.9961H13.8252V9.72337H14.7137ZM17.2601 10.8036C17.2463 10.7472 17.2244 10.6976 17.1946 10.655C17.1648 10.6113 17.1275 10.5746 17.0827 10.5447C17.0391 10.5138 16.9879 10.4909 16.9293 10.476C16.8718 10.46 16.8084 10.4521 16.7392 10.4521C16.59 10.4521 16.4627 10.4877 16.3572 10.5591C16.2528 10.6305 16.1729 10.7333 16.1175 10.8675C16.0632 11.0018 16.036 11.1637 16.036 11.3533C16.036 11.5451 16.0621 11.7092 16.1143 11.8455C16.1665 11.9819 16.2443 12.0863 16.3477 12.1587C16.451 12.2312 16.5794 12.2674 16.7328 12.2674C16.8681 12.2674 16.9805 12.2477 17.07 12.2083C17.1605 12.1689 17.2282 12.1129 17.2729 12.0405C17.3176 11.968 17.34 11.8828 17.34 11.7848L17.4934 11.8008H16.7456V11.168H18.1966V11.6218C18.1966 11.9201 18.1332 12.1752 18.0064 12.3873C17.8807 12.5982 17.707 12.7601 17.4854 12.873C17.2649 12.9849 17.0119 13.0408 16.7264 13.0408C16.4078 13.0408 16.1282 12.9732 15.8874 12.8379C15.6467 12.7026 15.4586 12.5098 15.3233 12.2594C15.1891 12.0091 15.122 11.7113 15.122 11.3661C15.122 11.0955 15.163 10.8558 15.245 10.647C15.3281 10.4382 15.4432 10.2619 15.5902 10.1181C15.7372 9.97319 15.9071 9.86399 16.1 9.79048C16.2928 9.71591 16.4995 9.67862 16.72 9.67862C16.9139 9.67862 17.0939 9.70632 17.2601 9.76172C17.4274 9.81605 17.5749 9.89382 17.7028 9.99503C17.8317 10.0952 17.9355 10.214 18.0144 10.3514C18.0932 10.4888 18.1412 10.6396 18.1582 10.8036H17.2601ZM21.4425 9.72337V12.9961H20.701L19.5185 11.2766H19.4993V12.9961H18.6108V9.72337H19.3651L20.5285 11.4364H20.554V9.72337H21.4425Z" fill="#016DB2"/>
</svg>
