<svg width="37" height="36" viewBox="0 0 37 36" fill="none" xmlns="http://www.w3.org/2000/svg">
<path d="M14.1667 4.5H6.66675C5.83832 4.5 5.16675 5.17157 5.16675 6V16.5C5.16675 17.3284 5.83832 18 6.66675 18H14.1667C14.9952 18 15.6667 17.3284 15.6667 16.5V6C15.6667 5.17157 14.9952 4.5 14.1667 4.5Z" stroke="#016DB2" stroke-width="2" stroke-linecap="round" stroke-linejoin="round"/>
<path d="M30.665 4.5H23.165C22.3366 4.5 21.665 5.17157 21.665 6V10.5C21.665 11.3284 22.3366 12 23.165 12H30.665C31.4935 12 32.165 11.3284 32.165 10.5V6C32.165 5.17157 31.4935 4.5 30.665 4.5Z" stroke="#016DB2" stroke-width="2" stroke-linecap="round" stroke-linejoin="round"/>
<path d="M14.1667 24.0016H6.66675C5.83832 24.0016 5.16675 24.6732 5.16675 25.5016V30.0016C5.16675 30.8301 5.83832 31.5016 6.66675 31.5016H14.1667C14.9952 31.5016 15.6667 30.8301 15.6667 30.0016V25.5016C15.6667 24.6732 14.9952 24.0016 14.1667 24.0016Z" stroke="#016DB2" stroke-width="2" stroke-linecap="round" stroke-linejoin="round"/>
<path d="M27.1911 31.3837C26.0431 31.3837 25.1004 31.113 24.3631 30.5717C23.6257 30.021 23.2291 29.237 23.1731 28.2197H26.0991C26.1271 28.565 26.2297 28.817 26.4071 28.9757C26.5844 29.1344 26.8131 29.2137 27.0931 29.2137C27.3451 29.2137 27.5504 29.153 27.7091 29.0317C27.8771 28.901 27.9611 28.7237 27.9611 28.4997C27.9611 28.2104 27.8257 27.9864 27.5551 27.8277C27.2844 27.669 26.8457 27.4917 26.2391 27.2957C25.5951 27.081 25.0724 26.8757 24.6711 26.6797C24.2791 26.4744 23.9337 26.1804 23.6351 25.7977C23.3457 25.4057 23.2011 24.897 23.2011 24.2717C23.2011 23.637 23.3597 23.0957 23.6771 22.6477C23.9944 22.1904 24.4331 21.845 24.9931 21.6117C25.5531 21.3784 26.1877 21.2617 26.8971 21.2617C28.0451 21.2617 28.9597 21.5324 29.6411 22.0737C30.3317 22.6057 30.7004 23.357 30.7471 24.3277H27.7651C27.7557 24.029 27.6624 23.805 27.4851 23.6557C27.3171 23.5064 27.0977 23.4317 26.8271 23.4317C26.6217 23.4317 26.4537 23.4924 26.3231 23.6137C26.1924 23.735 26.1271 23.9077 26.1271 24.1317C26.1271 24.3184 26.1971 24.4817 26.3371 24.6217C26.4864 24.7524 26.6684 24.869 26.8831 24.9717C27.0977 25.065 27.4151 25.1864 27.8351 25.3357C28.4604 25.5504 28.9737 25.765 29.3751 25.9797C29.7857 26.185 30.1357 26.479 30.4251 26.8617C30.7237 27.235 30.8731 27.711 30.8731 28.2897C30.8731 28.8777 30.7237 29.405 30.4251 29.8717C30.1357 30.3384 29.7111 30.707 29.1511 30.9777C28.6004 31.2484 27.9471 31.3837 27.1911 31.3837Z" fill="#016DB2"/>
</svg>
