<svg width="25" height="26" viewBox="0 0 25 26" fill="none" xmlns="http://www.w3.org/2000/svg">
<path fill-rule="evenodd" clip-rule="evenodd" d="M0 4.66667C0 3.5616 0.438987 2.50179 1.22039 1.72039C2.00179 0.938987 3.0616 0.5 4.16667 0.5H20.8333C21.9384 0.5 22.9982 0.938987 23.7796 1.72039C24.561 2.50179 25 3.5616 25 4.66667V21.3333C25 22.4384 24.561 23.4982 23.7796 24.2796C22.9982 25.061 21.9384 25.5 20.8333 25.5H4.16667C3.0616 25.5 2.00179 25.061 1.22039 24.2796C0.438987 23.4982 0 22.4384 0 21.3333V4.66667ZM13.8889 7.44444C13.8889 7.07609 13.7426 6.72282 13.4821 6.46235C13.2216 6.20188 12.8684 6.05556 12.5 6.05556C12.1316 6.05556 11.7784 6.20188 11.5179 6.46235C11.2574 6.72282 11.1111 7.07609 11.1111 7.44444V18.5556C11.1111 18.9239 11.2574 19.2772 11.5179 19.5376C11.7784 19.7981 12.1316 19.9444 12.5 19.9444C12.8684 19.9444 13.2216 19.7981 13.4821 19.5376C13.7426 19.2772 13.8889 18.9239 13.8889 18.5556V7.44444ZM8.33333 11.6111C8.33333 11.2428 8.187 10.8895 7.92654 10.629C7.66607 10.3686 7.3128 10.2222 6.94444 10.2222C6.57609 10.2222 6.22282 10.3686 5.96235 10.629C5.70188 10.8895 5.55556 11.2428 5.55556 11.6111V18.5556C5.55556 18.9239 5.70188 19.2772 5.96235 19.5376C6.22282 19.7981 6.57609 19.9444 6.94444 19.9444C7.3128 19.9444 7.66607 19.7981 7.92654 19.5376C8.187 19.2772 8.33333 18.9239 8.33333 18.5556V11.6111ZM19.4444 15.7778C19.4444 15.4094 19.2981 15.0562 19.0376 14.7957C18.7772 14.5352 18.4239 14.3889 18.0556 14.3889C17.6872 14.3889 17.3339 14.5352 17.0735 14.7957C16.813 15.0562 16.6667 15.4094 16.6667 15.7778V18.5556C16.6667 18.9239 16.813 19.2772 17.0735 19.5376C17.3339 19.7981 17.6872 19.9444 18.0556 19.9444C18.4239 19.9444 18.7772 19.7981 19.0376 19.5376C19.2981 19.2772 19.4444 18.9239 19.4444 18.5556V15.7778Z" fill="#016DB2"/>
</svg>
