<svg width="25" height="26" viewBox="0 0 25 26" fill="none" xmlns="http://www.w3.org/2000/svg">
<path d="M8.77714 13.0001H2.57666C1.89287 13.0001 1.33594 12.4463 1.33594 11.7594V3.08055C1.33594 2.39677 1.88978 1.83984 2.57666 1.83984H8.77714C9.46093 1.83984 10.0179 2.39367 10.0179 3.08055V11.7594C10.0179 12.4463 9.46093 13.0001 8.77714 13.0001ZM23.6565 6.80271V3.08365C23.6565 2.39986 23.1026 1.84293 22.4158 1.84293H16.2153C15.5315 1.84293 14.9746 2.39677 14.9746 3.08365V6.80271C14.9746 7.48649 15.5284 8.04343 16.2153 8.04343H22.4158C23.0995 8.04033 23.6565 7.48649 23.6565 6.80271ZM10.0179 22.9197V19.2006C10.0179 18.5168 9.46403 17.9599 8.77714 17.9599H2.57666C1.89287 17.9599 1.33594 18.5137 1.33594 19.2006V22.9197C1.33594 23.6034 1.88978 24.1604 2.57666 24.1604H8.77714C9.46093 24.1604 10.0179 23.6034 10.0179 22.9197Z" fill="#016DB2"/>
<path d="M8.77784 25.5H2.58045C1.15719 25.5 0 24.3428 0 22.9195V19.2005C0 17.7772 1.15719 16.62 2.58045 16.62H8.77784C10.2011 16.62 11.3583 17.7772 11.3583 19.2005V22.9195C11.3583 24.3428 10.2011 25.5 8.77784 25.5ZM8.67575 19.2005L2.57736 19.3026L2.67947 22.9195L8.67575 22.8205V19.2005ZM8.77784 14.3397H2.58045C1.15719 14.3397 0 13.1826 0 11.7593V3.08044C0 1.65718 1.15719 0.5 2.58045 0.5H8.77784C10.2011 0.5 11.3583 1.65718 11.3583 3.08044V11.7593C11.3583 13.1826 10.2011 14.3397 8.77784 14.3397ZM8.67575 3.08044L2.57736 3.18255L2.67947 11.7593L8.67575 11.6603V3.08044ZM8.77784 11.6603C8.77475 11.6603 8.77475 11.6603 8.77784 11.6603V11.6603ZM22.4165 9.38304H16.2191C14.7958 9.38304 13.6386 8.22586 13.6386 6.8026V3.08354C13.6386 1.66027 14.7958 0.503097 16.2191 0.503097H22.4165C23.8397 0.503097 24.9969 1.66027 24.9969 3.08354V6.8026C24.9969 8.22586 23.8397 9.38304 22.4165 9.38304ZM22.3144 3.08044L16.216 3.18255L16.3181 6.79951L22.3144 6.7005V3.08044Z" fill="#016DB2"/>
<path d="M19.5915 25.612C18.2795 25.612 17.2021 25.3027 16.3595 24.684C15.5168 24.0547 15.0635 23.1587 14.9995 21.996H18.3435C18.3755 22.3907 18.4928 22.6787 18.6955 22.86C18.8981 23.0413 19.1595 23.132 19.4795 23.132C19.7675 23.132 20.0021 23.0627 20.1835 22.924C20.3755 22.7747 20.4715 22.572 20.4715 22.316C20.4715 21.9853 20.3168 21.7293 20.0075 21.548C19.6981 21.3667 19.1968 21.164 18.5035 20.94C17.7675 20.6947 17.1701 20.46 16.7115 20.236C16.2635 20.0013 15.8688 19.6653 15.5275 19.228C15.1968 18.78 15.0315 18.1987 15.0315 17.484C15.0315 16.7587 15.2128 16.14 15.5755 15.628C15.9381 15.1053 16.4395 14.7107 17.0795 14.444C17.7195 14.1773 18.4448 14.044 19.2555 14.044C20.5675 14.044 21.6128 14.3533 22.3915 14.972C23.1808 15.58 23.6021 16.4387 23.6555 17.548H20.2475C20.2368 17.2067 20.1301 16.9507 19.9275 16.78C19.7355 16.6093 19.4848 16.524 19.1755 16.524C18.9408 16.524 18.7488 16.5933 18.5995 16.732C18.4501 16.8707 18.3755 17.068 18.3755 17.324C18.3755 17.5373 18.4555 17.724 18.6155 17.884C18.7861 18.0333 18.9941 18.1667 19.2395 18.284C19.4848 18.3907 19.8475 18.5293 20.3275 18.7C21.0421 18.9453 21.6288 19.1907 22.0875 19.436C22.5568 19.6707 22.9568 20.0067 23.2875 20.444C23.6288 20.8707 23.7995 21.4147 23.7995 22.076C23.7995 22.748 23.6288 23.3507 23.2875 23.884C22.9568 24.4173 22.4715 24.8387 21.8315 25.148C21.2021 25.4573 20.4555 25.612 19.5915 25.612Z" fill="#016DB2"/>
</svg>
