<svg width="25" height="26" viewBox="0 0 25 26" fill="none" xmlns="http://www.w3.org/2000/svg">
<path d="M8.70115 12.8907H2.55797C1.88017 12.8907 1.32812 12.3417 1.32812 11.6609V3.05798C1.32812 2.38018 1.8771 1.82812 2.55797 1.82812H8.70422C9.38202 1.82812 9.93408 2.37711 9.93408 3.05798V11.6609C9.93101 12.3387 9.37895 12.8907 8.70115 12.8907ZM23.4503 6.7445V3.05798C23.4503 2.38018 22.9013 1.82812 22.2204 1.82812H16.0742C15.3964 1.82812 14.8443 2.37711 14.8443 3.05798V6.7445C14.8443 7.4223 15.3933 7.97435 16.0742 7.97435H22.2204C22.8982 7.97435 23.4503 7.4223 23.4503 6.7445ZM9.93101 22.7204V19.0339C9.93101 18.3561 9.38202 17.804 8.70115 17.804H2.55797C1.88017 17.804 1.32812 18.353 1.32812 19.0339V22.7204C1.32812 23.3982 1.8771 23.9503 2.55797 23.9503H8.70422C9.37895 23.9503 9.93101 23.4013 9.93101 22.7204Z" fill="#016DB2"/>
<path d="M8.70103 25.2812H2.55785C1.14704 25.2812 0 24.1342 0 22.7234V19.0338C0 17.623 1.14704 16.4759 2.55785 16.4759H8.70103C10.1118 16.4759 11.2589 17.623 11.2589 19.0338V22.7203C11.2589 24.1311 10.1118 25.2812 8.70103 25.2812ZM8.59981 19.0338L2.5548 19.135L2.656 22.7203L8.59981 22.6222V19.0338ZM8.70103 14.2186H2.55785C1.14704 14.2186 0 13.0716 0 11.6608V3.05786C0 1.64705 1.14704 0.5 2.55785 0.5H8.70103C10.1118 0.5 11.2589 1.64705 11.2589 3.05786V11.6608C11.2589 13.0716 10.1118 14.2186 8.70103 14.2186ZM8.59981 3.05786L2.5548 3.15908L2.656 11.6608L8.59981 11.5626V3.05786ZM22.2203 9.30225H16.0771C14.6663 9.30225 13.5193 8.15519 13.5193 6.74438V3.05786C13.5193 1.64705 14.6663 0.5 16.0771 0.5H22.2203C23.6311 0.5 24.7781 1.64705 24.7781 3.05786V6.74438C24.7781 8.15519 23.6311 9.30225 22.2203 9.30225ZM22.1191 3.05786L16.074 3.15908L16.1753 6.74438L22.1191 6.64624V3.05786Z" fill="#016DB2"/>
<path d="M24.5118 14.3255L20.6238 25.6055H16.6078L12.7038 14.3255H16.0638L18.6238 22.4695L21.1678 14.3255H24.5118Z" fill="#016DB2"/>
</svg>
