 <svg
      xmlns="http://www.w3.org/2000/svg"
      width="375"
      height="16"
      viewBox="0 0 375 16"
      fill="none"
    >
      <path
        fillRule="evenodd"
        clipRule="evenodd"
        d="M0 0L15.625 1.18519C31.25 2.37037 62.5 4.74074 93.75 6.51852C125 8.2963 156.25 9.48148 187.5 9.18519C218.75 8.88889 250 7.11111 281.25 5.33333C312.5 3.55556 343.75 1.77778 359.375 0.888889L375 0V16H359.375C343.75 16 312.5 16 281.25 16C250 16 218.75 16 187.5 16C156.25 16 125 16 93.75 16C62.5 16 31.25 16 15.625 16H0V0Z"
        fill="#C9F3FB"
      />
    </svg>